<?xml version="1.0" standalone="no"?>
<!DOCTYPE svg PUBLIC "-//W3C//DTD SVG 20010904//EN"
 "http://www.w3.org/TR/2001/REC-SVG-20010904/DTD/svg10.dtd">
<svg version="1.0" xmlns="http://www.w3.org/2000/svg"
 width="600.000000pt" height="600.000000pt" viewBox="0 0 600.000000 600.000000"
 preserveAspectRatio="xMidYMid meet">

<g transform="translate(0.000000,600.000000) scale(0.100000,-0.100000)"
fill="#000000" stroke="none">
<path d="M3059 5646 c-164 -29 -236 -60 -532 -228 -208 -118 -283 -152 -517
-233 -224 -77 -256 -92 -312 -143 -91 -82 -92 -198 -2 -318 21 -29 22 -36 13
-100 -5 -37 -7 -74 -4 -82 2 -7 -6 -39 -19 -70 -13 -31 -27 -67 -31 -80 -4
-13 -26 -41 -50 -63 -68 -63 -102 -124 -115 -205 -7 -48 -8 -84 -1 -114 9 -42
8 -48 -26 -99 -50 -76 -62 -114 -63 -203 0 -73 3 -82 45 -163 l46 -86 -22 -80
c-18 -67 -20 -87 -11 -117 6 -21 14 -47 17 -60 4 -12 17 -34 29 -50 13 -15 32
-55 44 -89 23 -71 80 -161 124 -198 16 -14 27 -29 24 -34 -10 -16 63 -112 153
-200 101 -99 134 -158 157 -282 12 -61 13 -91 5 -135 -6 -32 -9 -60 -6 -62 3
-3 5 3 5 14 0 14 2 16 9 6 6 -10 12 0 22 32 l13 46 36 -36 c19 -20 49 -48 66
-61 18 -13 42 -47 55 -76 l24 -52 5 45 5 45 22 -47 c31 -67 78 -134 145 -203
54 -57 59 -66 79 -150 26 -108 28 -239 6 -308 -25 -78 -94 -190 -133 -215 -81
-53 -129 -64 -289 -66 l-150 -2 -405 -141 c-223 -77 -486 -167 -585 -199
l-180 -58 -60 -61 c-118 -118 -185 -249 -240 -468 -18 -73 -35 -147 -38 -164
l-6 -33 2469 0 2469 0 -43 72 c-23 40 -63 114 -89 163 -61 118 -144 221 -310
381 -201 195 -381 308 -592 369 -50 14 -175 41 -280 60 -104 19 -228 46 -274
60 -46 14 -89 25 -96 25 -35 0 -48 143 -25 283 l13 78 77 64 c176 147 320 330
444 565 86 163 114 238 166 437 15 61 120 197 171 223 102 53 166 148 193 289
7 38 21 79 30 92 17 23 18 22 14 -48 -2 -40 0 -69 4 -65 4 4 18 37 33 75 37
100 31 207 -16 264 -7 8 -11 55 -10 124 2 100 5 117 29 163 36 69 38 189 4
253 -18 35 -21 52 -16 95 5 40 1 67 -15 113 -12 32 -21 60 -21 61 0 2 24 0 54
-3 54 -6 54 -5 61 25 3 18 1 40 -5 52 -7 13 -8 26 -2 33 21 27 19 70 -7 229
-20 123 -33 174 -47 189 -10 12 -64 52 -119 90 -55 37 -224 166 -375 286 -165
132 -321 246 -390 288 -63 38 -147 90 -187 117 -198 132 -246 149 -443 154
-93 2 -172 -2 -221 -10z m443 -43 c38 -18 116 -65 175 -106 60 -40 160 -105
223 -142 63 -38 202 -139 310 -225 258 -206 388 -306 483 -369 43 -29 82 -62
87 -74 13 -32 50 -268 50 -320 0 -56 -15 -69 -83 -75 -89 -7 -200 21 -374 96
-159 68 -254 117 -593 307 l-165 93 -115 7 c-270 16 -651 -48 -1050 -177 -153
-49 -356 -137 -334 -145 6 -2 58 14 115 35 151 57 344 119 494 157 256 66 612
110 760 95 l60 -6 -50 -8 c-86 -14 -331 -94 -585 -192 -260 -99 -414 -144
-576 -169 -211 -32 -249 -22 -363 92 -47 47 -121 117 -163 155 -52 46 -88 89
-111 131 -44 79 -50 108 -36 160 26 97 83 134 349 225 237 82 324 121 540 244
296 169 356 196 505 228 71 16 121 19 235 17 138 -3 148 -5 212 -34z m-1733
-957 c9 -10 5 -23 -16 -55 -14 -22 -28 -39 -30 -37 -6 6 19 106 27 106 4 0 13
-6 19 -14z m121 -109 c0 -14 -139 -122 -147 -114 -13 13 13 51 60 87 52 40 87
51 87 27z m2940 -293 l0 -37 -42 6 c-62 9 -111 25 -133 42 -18 13 -14 14 50 9
40 -3 81 -1 95 4 14 6 26 11 28 11 1 1 2 -15 2 -35z m-156 -29 c35 -33 62 -96
70 -165 l7 -55 -40 43 c-45 49 -79 114 -88 166 -7 44 11 48 51 11z m-1073
-202 c-15 -123 -44 -219 -97 -326 -105 -207 -187 -300 -335 -375 -81 -41 -82
-43 -39 -36 60 9 220 66 274 98 24 14 67 51 95 82 l52 57 -25 -57 c-52 -116
-158 -236 -209 -236 -11 0 -17 -3 -14 -7 4 -3 2 -12 -4 -20 -15 -17 -7 -16 38
2 19 8 50 15 67 15 17 0 58 13 91 28 45 20 69 26 95 22 19 -3 51 -1 70 6 19 6
55 15 80 19 25 3 67 13 94 21 27 8 51 12 53 10 2 -2 -10 -20 -27 -40 -44 -49
-26 -45 40 9 46 38 61 45 95 44 l40 -2 -35 -6 c-33 -7 -32 -8 25 -15 33 -4 69
-10 80 -12 11 -3 0 7 -25 20 -25 14 -58 25 -74 26 l-28 0 31 36 c42 47 76 101
127 204 l43 85 1 -161 c0 -108 5 -188 16 -239 21 -100 14 -140 -41 -242 -25
-46 -45 -86 -45 -89 0 -9 70 77 97 120 14 21 37 68 53 103 l27 65 5 -84 c4
-64 12 -96 32 -137 26 -51 27 -58 21 -155 -9 -131 -29 -271 -54 -367 -62 -241
-253 -577 -438 -770 -307 -319 -555 -382 -890 -224 -163 77 -358 221 -509 377
-97 100 -144 169 -179 263 -15 39 -35 88 -45 110 -17 37 -64 186 -123 394 -13
47 -29 87 -35 89 -18 6 -15 -18 13 -115 14 -48 23 -93 21 -100 -15 -39 -120
16 -173 89 -60 85 -184 353 -198 431 l-8 39 45 -49 c24 -26 56 -63 71 -81 l26
-33 7 27 c7 26 7 25 76 -43 38 -37 87 -93 108 -123 21 -30 50 -66 64 -79 l26
-25 -7 35 c-23 101 9 278 60 336 17 20 74 70 127 113 80 65 107 93 156 158 4
5 189 32 266 39 37 3 66 9 63 12 -7 12 68 27 95 20 21 -6 19 -7 -15 -9 -22 -1
-32 -4 -22 -7 9 -2 15 -8 13 -12 -3 -4 9 -5 27 -3 30 5 31 4 17 -13 -11 -14
-11 -17 -1 -11 23 14 82 25 75 14 -4 -6 1 -8 14 -4 11 4 23 2 26 -3 4 -5 26
-9 50 -8 36 2 42 5 38 20 -4 15 -7 16 -14 5 -7 -11 -11 -10 -21 3 -6 9 -25 20
-41 25 l-28 10 63 44 c82 57 221 196 280 280 57 80 145 230 195 332 21 43 40
76 42 73 2 -2 -1 -43 -7 -92z m1129 -62 c0 -9 -7 -27 -16 -39 -9 -13 -14 -26
-11 -29 3 -2 13 7 22 21 10 14 21 26 26 26 5 0 16 -25 25 -56 17 -61 13 -134
-10 -189 l-13 -30 -8 40 c-5 22 -18 69 -30 105 -12 36 -23 96 -24 135 l-3 69
21 -18 c12 -11 21 -26 21 -35z m-3279 -266 l-8 -80 -2 61 c0 34 2 77 6 95 11
54 14 11 4 -76z m1672 -182 c-50 -60 -118 -103 -169 -108 -38 -3 -37 -3 28 31
36 20 90 57 119 84 30 26 56 46 58 44 2 -2 -14 -25 -36 -51z m823 -98 l-25
-55 -53 -2 -53 -1 50 -6 50 -6 -60 -7 c-33 -4 -78 -10 -100 -13 -36 -6 -33 -3
35 31 43 22 97 60 125 89 28 28 51 45 53 38 2 -7 -8 -38 -22 -68z m-2407 -82
c-4 -27 -8 -73 -9 -103 -1 -52 -2 -54 -16 -35 -11 14 -14 34 -11 65 4 41 30
120 40 120 2 0 0 -21 -4 -47z m1428 31 c-3 -3 -12 -4 -19 -1 -8 3 -5 6 6 6 11
1 17 -2 13 -5z m723 -53 c0 -6 -4 -12 -8 -15 -5 -3 -9 1 -9 9 0 8 4 15 9 15 4
0 8 -4 8 -9z m-67 -28 c-7 -2 -19 -2 -25 0 -7 3 -2 5 12 5 14 0 19 -2 13 -5z
m-948 -1642 c108 -82 207 -144 295 -183 216 -97 426 -98 599 -2 24 13 46 23
48 20 2 -2 -1 -32 -7 -67 -23 -144 -7 -256 47 -327 14 -19 52 -55 84 -80 57
-44 59 -47 59 -92 0 -70 -41 -126 -136 -189 -116 -76 -228 -128 -340 -157 -87
-24 -119 -27 -259 -27 -241 -1 -433 40 -623 134 -129 63 -213 142 -292 274
-29 50 -60 100 -67 112 -14 21 -13 22 44 33 32 6 95 24 141 39 l83 28 -27 -28
c-29 -30 -26 -51 4 -33 32 20 101 119 153 222 52 100 53 105 57 201 3 67 -1
121 -12 169 -9 39 -16 74 -16 77 0 4 17 -7 38 -24 20 -17 78 -62 127 -100z"/>
<path d="M3350 5490 c0 -5 14 -7 33 -3 45 8 47 13 4 13 -20 0 -37 -4 -37 -10z"/>
<path d="M3001 5089 c-13 -5 -22 -12 -19 -14 3 -3 20 1 39 9 37 17 19 21 -20
5z"/>
<path d="M3090 5040 c-8 -5 -10 -10 -5 -10 6 0 17 5 25 10 8 5 11 10 5 10 -5
0 -17 -5 -25 -10z"/>
<path d="M2174 5010 c-12 -5 -25 -14 -29 -20 -6 -10 50 13 64 26 7 7 -13 3
-35 -6z"/>
<path d="M2004 4995 c-10 -8 -14 -14 -9 -14 6 0 19 6 29 14 11 8 15 15 10 15
-6 0 -19 -7 -30 -15z"/>
<path d="M2220 4980 c-18 -12 -2 -12 25 0 13 6 15 9 5 9 -8 0 -22 -4 -30 -9z"/>
<path d="M2993 4644 c-170 -77 -584 -192 -725 -201 -55 -4 -85 -10 -81 -16 10
-16 156 0 293 32 215 50 513 155 560 198 19 17 15 16 -47 -13z"/>
<path d="M4696 4649 c3 -14 9 -57 14 -95 l9 -69 -4 77 c-2 42 -8 85 -14 95
-10 15 -10 14 -5 -8z"/>
<path d="M4240 4650 c0 -13 11 -13 30 0 12 8 11 10 -7 10 -13 0 -23 -4 -23
-10z"/>
<path d="M2777 3173 c18 -2 50 -2 70 0 21 2 7 4 -32 4 -38 0 -55 -2 -38 -4z"/>
<path d="M2708 3163 c6 -2 18 -2 25 0 6 3 1 5 -13 5 -14 0 -19 -2 -12 -5z"/>
<path d="M2905 3161 c13 -5 -17 -10 -80 -13 -93 -4 -106 -7 -184 -46 -46 -23
-90 -42 -97 -42 -14 0 -29 -18 -21 -26 2 -3 24 4 48 15 24 11 65 29 90 40 25
12 48 21 50 21 3 0 4 -14 1 -30 -3 -20 2 -37 13 -50 22 -24 16 -25 -30 -6 -39
17 -47 8 -13 -13 29 -18 238 -29 238 -12 0 6 -7 11 -17 11 -15 0 -14 2 2 20
12 13 16 30 13 55 -3 30 -1 35 17 35 22 0 78 -31 112 -63 13 -11 26 -17 30
-14 18 19 -138 129 -179 126 -7 0 -4 -4 7 -8z m-100 -66 c0 -23 -30 -32 -50
-15 -21 18 -7 42 24 38 18 -2 26 -9 26 -23z"/>
<path d="M2668 3153 c7 -3 16 -2 19 1 4 3 -2 6 -13 5 -11 0 -14 -3 -6 -6z"/>
<path d="M3843 3153 c15 -2 37 -2 50 0 12 2 0 4 -28 4 -27 0 -38 -2 -22 -4z"/>
<path d="M2603 3135 c-18 -8 -33 -16 -33 -19 0 -5 71 22 79 30 9 8 -15 3 -46
-11z"/>
<path d="M3788 3143 c7 -3 16 -2 19 1 4 3 -2 6 -13 5 -11 0 -14 -3 -6 -6z"/>
<path d="M3960 3135 c24 -8 46 -13 48 -11 5 5 -59 26 -77 25 -9 0 4 -7 29 -14z"/>
<path d="M3705 3117 c-47 -22 -117 -99 -103 -113 3 -3 23 11 44 31 22 20 47
41 57 46 16 9 17 8 5 -11 -11 -17 -10 -25 4 -50 17 -29 17 -30 -5 -30 -17 0
-19 -2 -7 -9 27 -18 105 -21 165 -7 47 11 53 14 27 15 l-33 1 22 29 c14 19 20
38 17 55 -5 23 -2 26 23 26 16 0 29 -4 29 -9 0 -5 13 -14 29 -19 15 -5 42 -25
59 -43 22 -24 32 -29 32 -18 0 57 -101 109 -215 110 -41 1 -77 5 -81 10 -8 13
-13 12 -69 -14z m93 -44 c-4 -22 -58 -31 -58 -10 0 20 10 27 37 27 18 0 24 -5
21 -17z"/>
<path d="M3486 3079 c-20 -49 -27 -126 -18 -184 8 -46 9 -43 10 42 1 58 7 105
17 129 8 20 13 39 10 42 -2 3 -11 -10 -19 -29z"/>
<path d="M4040 3106 c0 -3 9 -10 20 -16 11 -6 20 -8 20 -6 0 3 -9 10 -20 16
-11 6 -20 8 -20 6z"/>
<path d="M3940 2990 c0 -5 7 -7 15 -4 8 4 15 8 15 10 0 2 -7 4 -15 4 -8 0 -15
-4 -15 -10z"/>
<path d="M3225 2370 c-16 -7 -13 -9 17 -9 20 -1 58 -12 84 -26 54 -29 106 -32
149 -8 17 9 46 24 65 35 34 18 34 18 7 18 -15 0 -45 -9 -67 -20 -22 -11 -55
-20 -75 -20 -20 0 -53 9 -75 20 -41 21 -72 24 -105 10z"/>
<path d="M3740 2100 c-8 -5 -40 -18 -70 -27 -47 -15 -99 -18 -375 -18 -289 0
-323 2 -348 18 -45 29 -87 13 -54 -20 14 -14 67 -16 414 -16 387 1 399 1 446
22 49 23 63 51 25 51 -13 0 -30 -5 -38 -10z"/>
<path d="M3465 1918 c-27 -5 -98 -6 -157 -3 -67 3 -109 2 -113 -5 -3 -5 2 -10
12 -10 10 -1 48 -5 86 -9 91 -12 247 7 247 30 0 10 -6 10 -75 -3z"/>
<path d="M3341 1145 c-14 -40 -41 -61 -103 -80 -24 -8 -34 -14 -23 -14 27 -1
96 32 117 55 20 23 41 74 30 74 -4 0 -14 -16 -21 -35z"/>
</g>
</svg>
